<svg width="103" height="66" viewBox="0 0 103 66" fill="none" xmlns="http://www.w3.org/2000/svg">
<path d="M8 2.66667L50.6667 0L45.3333 16.8889L0 18.6667L8 2.66667Z" fill="#19196D"/>
<path d="M56.8889 23.1111L52.4444 1.77778L51.5556 4.44444L56 23.1111H56.8889Z" fill="#19196D"/>
<path d="M2.66667 20.4444L45.3333 19.5556V40H2.66667V20.4444Z" fill="#19196D"/>
<path d="M47.1111 18.6667L50.6667 8L53.3333 23.1111V40H47.1111V18.6667Z" fill="#19196D"/>
<path d="M61.7578 18H64.3994C66.5088 18 67.7148 16.7061 67.7148 14.4502V14.4404C67.7148 12.2334 66.4941 10.9541 64.3994 10.9541H61.7578V18ZM63.0176 16.9404V12.0137H64.2334C65.6152 12.0137 66.4307 12.9121 66.4307 14.46V14.4697C66.4307 16.0518 65.6348 16.9404 64.2334 16.9404H63.0176ZM69.3602 18H70.6199V10.9541H69.3602V18ZM75.5709 18.1758C77.4508 18.1758 78.652 17.0088 78.652 15.1875V14.3086H75.7271V15.2705H77.4166L77.4117 15.417C77.3971 16.418 76.6646 17.0869 75.5904 17.0869C74.3355 17.0869 73.5445 16.0859 73.5445 14.4697V14.46C73.5445 12.8682 74.3209 11.8672 75.5514 11.8672C76.4547 11.8672 77.0992 12.3164 77.3287 13.0879L77.3434 13.1367H78.5934L78.5885 13.0879C78.3492 11.7109 77.1773 10.7783 75.5514 10.7783C73.5445 10.7783 72.2604 12.2188 72.2604 14.4697V14.4795C72.2604 16.7549 73.5299 18.1758 75.5709 18.1758ZM80.3168 18H81.5766V10.9541H80.3168V18ZM83.4123 15.71H86.674V14.6064H83.4123V15.71ZM61.7578 30H62.9736V25.1465H63.0518L66.5137 30H67.6025V22.9541H66.3916V27.8076H66.3135L62.8516 22.9541H61.7578V30ZM72.5828 30.1758C74.6385 30.1758 75.9129 28.7451 75.9129 26.4795V26.4697C75.9129 24.1992 74.6336 22.7783 72.5828 22.7783C70.5369 22.7783 69.2479 24.1992 69.2479 26.4697V26.4795C69.2479 28.7451 70.5174 30.1758 72.5828 30.1758ZM72.5828 29.0869C71.3133 29.0869 70.532 28.0615 70.532 26.4795V26.4697C70.532 24.8779 71.3328 23.8672 72.5828 23.8672C73.8328 23.8672 74.6287 24.8779 74.6287 26.4697V26.4795C74.6287 28.0615 73.8377 29.0869 72.5828 29.0869ZM77.5582 30H78.6959V24.9902H78.7789L80.732 30H81.5914L83.5445 24.9902H83.6324V30H84.7652V22.9541H83.3199L81.2057 28.374H81.1227L79.0035 22.9541H77.5582V30ZM86.1811 30H87.4994L88.0854 28.1787H90.6928L91.2836 30H92.602L90.102 22.9541H88.6811L86.1811 30ZM89.35 24.2627H89.433L90.3803 27.207H88.4027L89.35 24.2627ZM94.0129 30H96.6545C98.7639 30 99.9699 28.7061 99.9699 26.4502V26.4404C99.9699 24.2334 98.7492 22.9541 96.6545 22.9541H94.0129V30ZM95.2727 28.9404V24.0137H96.4885C97.8703 24.0137 98.6857 24.9121 98.6857 26.46V26.4697C98.6857 28.0518 97.8898 28.9404 96.4885 28.9404H95.2727Z" fill="#19196D"/>
<path d="M0.613281 63H2.4707L3.09766 60.9492H6.08008L6.70703 63H8.57031L5.62891 54.5449H3.54883L0.613281 63ZM4.53906 56.2324H4.64453L5.67578 59.625H3.50195L4.53906 56.2324ZM13.2109 63.2168C15.25 63.2168 16.6973 62.0098 16.8789 60.2402L16.8848 60.1758H15.1621L15.1504 60.2227C14.9629 61.125 14.2305 61.7168 13.2168 61.7168C11.8809 61.7168 11.0547 60.5918 11.0547 58.7754V58.7637C11.0547 56.9473 11.8809 55.8281 13.2109 55.8281C14.2188 55.8281 14.9746 56.4727 15.1562 57.4219V57.4629H16.8789V57.3926C16.7148 55.6055 15.2148 54.3281 13.2109 54.3281C10.7559 54.3281 9.24414 56.0215 9.24414 58.7637V58.7754C9.24414 61.5176 10.7617 63.2168 13.2109 63.2168ZM22.1055 63.2168C24.1445 63.2168 25.5918 62.0098 25.7734 60.2402L25.7793 60.1758H24.0566L24.0449 60.2227C23.8574 61.125 23.125 61.7168 22.1113 61.7168C20.7754 61.7168 19.9492 60.5918 19.9492 58.7754V58.7637C19.9492 56.9473 20.7754 55.8281 22.1055 55.8281C23.1133 55.8281 23.8691 56.4727 24.0508 57.4219V57.4629H25.7734V57.3926C25.6094 55.6055 24.1094 54.3281 22.1055 54.3281C19.6504 54.3281 18.1387 56.0215 18.1387 58.7637V58.7754C18.1387 61.5176 19.6562 63.2168 22.1055 63.2168ZM27.4082 63H33.0098V61.541H29.1777V59.4023H32.793V58.043H29.1777V56.0039H33.0098V54.5449H27.4082V63ZM37.8965 63.2168C40.0059 63.2168 41.3066 62.1562 41.3066 60.4805V60.4746C41.3066 59.1562 40.5273 58.4414 38.7402 58.0723L37.8438 57.8906C36.8477 57.6855 36.4375 57.3574 36.4375 56.8066V56.8008C36.4375 56.168 37.0176 55.7695 37.8906 55.7637C38.7812 55.7637 39.3672 56.1855 39.4668 56.7891L39.4785 56.8594H41.1426L41.1367 56.7832C41.0254 55.3711 39.8652 54.3281 37.8906 54.3281C36.0156 54.3281 34.668 55.3652 34.668 56.9355V56.9414C34.668 58.2246 35.4238 59.0449 37.1816 59.4023L38.0723 59.584C39.1211 59.8008 39.5371 60.1113 39.5371 60.668V60.6738C39.5371 61.3242 38.8867 61.7754 37.9434 61.7754C36.9531 61.7754 36.2676 61.3477 36.2031 60.7148L36.1973 60.6562H34.4922L34.498 60.75C34.5977 62.25 35.875 63.2168 37.8965 63.2168ZM46.0059 63.2168C48.1152 63.2168 49.416 62.1562 49.416 60.4805V60.4746C49.416 59.1562 48.6367 58.4414 46.8496 58.0723L45.9531 57.8906C44.957 57.6855 44.5469 57.3574 44.5469 56.8066V56.8008C44.5469 56.168 45.127 55.7695 46 55.7637C46.8906 55.7637 47.4766 56.1855 47.5762 56.7891L47.5879 56.8594H49.252L49.2461 56.7832C49.1348 55.3711 47.9746 54.3281 46 54.3281C44.125 54.3281 42.7773 55.3652 42.7773 56.9355V56.9414C42.7773 58.2246 43.5332 59.0449 45.291 59.4023L46.1816 59.584C47.2305 59.8008 47.6465 60.1113 47.6465 60.668V60.6738C47.6465 61.3242 46.9961 61.7754 46.0527 61.7754C45.0625 61.7754 44.377 61.3477 44.3125 60.7148L44.3066 60.6562H42.6016L42.6074 60.75C42.707 62.25 43.9844 63.2168 46.0059 63.2168ZM51.0918 63H52.8613V54.5449H51.0918V63ZM54.9121 63H58.709C60.5137 63 61.6328 62.0684 61.6328 60.5859V60.5742C61.6328 59.4902 60.8184 58.6523 59.6992 58.5645V58.459C60.5664 58.3301 61.2285 57.5508 61.2285 56.6602V56.6484C61.2285 55.3477 60.25 54.5449 58.6094 54.5449H54.9121V63ZM58.1582 55.8574C59.002 55.8574 59.4883 56.2676 59.4883 56.9531V56.9648C59.4883 57.6621 58.9668 58.0605 58.0117 58.0605H56.6816V55.8574H58.1582ZM58.2168 59.2266C59.2598 59.2266 59.8281 59.6484 59.8281 60.4336V60.4453C59.8281 61.248 59.2773 61.6816 58.2578 61.6816H56.6816V59.2266H58.2168ZM63.2324 63H68.7637V61.541H65.002V54.5449H63.2324V63ZM70.3691 63H75.9707V61.541H72.1387V59.4023H75.7539V58.043H72.1387V56.0039H75.9707V54.5449H70.3691V63Z" fill="#19196D"/>
</svg>
