<svg width="103" height="40" viewBox="0 0 103 40" fill="none" xmlns="http://www.w3.org/2000/svg">
<path d="M8 2.66667L50.6667 0L45.3333 16.8889L0 18.6667L8 2.66667Z" fill="#19196D"/>
<path d="M56.8889 23.1111L52.4444 1.77778L51.5556 4.44444L56 23.1111H56.8889Z" fill="#19196D"/>
<path d="M2.66667 20.4444L45.3333 19.5556V40H2.66667V20.4444Z" fill="#19196D"/>
<path d="M47.1111 18.6667L50.6667 8L53.3333 23.1111V40H47.1111V18.6667Z" fill="#19196D"/>
<path d="M61.7578 18H64.3994C66.5088 18 67.7148 16.7061 67.7148 14.4502V14.4404C67.7148 12.2334 66.4941 10.9541 64.3994 10.9541H61.7578V18ZM63.0176 16.9404V12.0137H64.2334C65.6152 12.0137 66.4307 12.9121 66.4307 14.46V14.4697C66.4307 16.0518 65.6348 16.9404 64.2334 16.9404H63.0176ZM69.3602 18H70.6199V10.9541H69.3602V18ZM75.5709 18.1758C77.4508 18.1758 78.652 17.0088 78.652 15.1875V14.3086H75.7271V15.2705H77.4166L77.4117 15.417C77.3971 16.418 76.6646 17.0869 75.5904 17.0869C74.3355 17.0869 73.5445 16.0859 73.5445 14.4697V14.46C73.5445 12.8682 74.3209 11.8672 75.5514 11.8672C76.4547 11.8672 77.0992 12.3164 77.3287 13.0879L77.3434 13.1367H78.5934L78.5885 13.0879C78.3492 11.7109 77.1773 10.7783 75.5514 10.7783C73.5445 10.7783 72.2604 12.2188 72.2604 14.4697V14.4795C72.2604 16.7549 73.5299 18.1758 75.5709 18.1758ZM80.3168 18H81.5766V10.9541H80.3168V18ZM83.4123 15.71H86.674V14.6064H83.4123V15.71ZM61.7578 30H62.9736V25.1465H63.0518L66.5137 30H67.6025V22.9541H66.3916V27.8076H66.3135L62.8516 22.9541H61.7578V30ZM72.5828 30.1758C74.6385 30.1758 75.9129 28.7451 75.9129 26.4795V26.4697C75.9129 24.1992 74.6336 22.7783 72.5828 22.7783C70.5369 22.7783 69.2479 24.1992 69.2479 26.4697V26.4795C69.2479 28.7451 70.5174 30.1758 72.5828 30.1758ZM72.5828 29.0869C71.3133 29.0869 70.532 28.0615 70.532 26.4795V26.4697C70.532 24.8779 71.3328 23.8672 72.5828 23.8672C73.8328 23.8672 74.6287 24.8779 74.6287 26.4697V26.4795C74.6287 28.0615 73.8377 29.0869 72.5828 29.0869ZM77.5582 30H78.6959V24.9902H78.7789L80.732 30H81.5914L83.5445 24.9902H83.6324V30H84.7652V22.9541H83.3199L81.2057 28.374H81.1227L79.0035 22.9541H77.5582V30ZM86.1811 30H87.4994L88.0854 28.1787H90.6928L91.2836 30H92.602L90.102 22.9541H88.6811L86.1811 30ZM89.35 24.2627H89.433L90.3803 27.207H88.4027L89.35 24.2627ZM94.0129 30H96.6545C98.7639 30 99.9699 28.7061 99.9699 26.4502V26.4404C99.9699 24.2334 98.7492 22.9541 96.6545 22.9541H94.0129V30ZM95.2727 28.9404V24.0137H96.4885C97.8703 24.0137 98.6857 24.9121 98.6857 26.46V26.4697C98.6857 28.0518 97.8898 28.9404 96.4885 28.9404H95.2727Z" fill="#19196D"/>
</svg>
